<svg width="32" height="32" viewBox="0 0 32 32" fill="none" xmlns="http://www.w3.org/2000/svg">
<path d="M25.3644 13.8335C25.6774 14.1454 25.6783 14.6519 25.3664 14.9649L16.6224 23.74C16.2785 24.0852 15.7196 24.0852 15.3757 23.74L6.63174 14.9649C6.31988 14.6519 6.32079 14.1454 6.63376 13.8335C6.94674 13.5216 7.45327 13.5225 7.76513 13.8355L15.9991 22.0988L24.233 13.8355C24.5449 13.5225 25.0514 13.5216 25.3644 13.8335ZM25.3644 7.4335C25.6774 7.74537 25.6783 8.2519 25.3664 8.56487L16.6224 17.34C16.2785 17.6852 15.7196 17.6852 15.3757 17.34L6.63174 8.56487C6.31988 8.2519 6.32079 7.74537 6.63376 7.4335C6.94674 7.12164 7.45327 7.12254 7.76513 7.43552L15.9991 15.6988L24.233 7.43552C24.5449 7.12254 25.0514 7.12164 25.3644 7.4335Z" fill="#242424"/>
</svg>
