<?xml version="1.0" standalone="no"?>
<!DOCTYPE svg PUBLIC "-//W3C//DTD SVG 20010904//EN"
 "http://www.w3.org/TR/2001/REC-SVG-20010904/DTD/svg10.dtd">
<svg version="1.0" xmlns="http://www.w3.org/2000/svg"
 width="964.000000pt" height="964.000000pt" viewBox="0 0 964.000000 964.000000"
 preserveAspectRatio="xMidYMid meet">
<metadata>
Created by potrace 1.14, written by Peter Selinger 2001-2017
</metadata>
<g transform="translate(0.000000,964.000000) scale(0.100000,-0.100000)"
fill="#000000" stroke="none">
<path d="M4725 9561 c-55 -32 -219 -126 -365 -211 -146 -84 -287 -166 -315
-182 -91 -52 -197 -113 -234 -134 -20 -11 -134 -77 -254 -147 -121 -70 -221
-127 -223 -127 -3 0 -17 -8 -32 -19 -23 -16 -295 -174 -402 -234 -19 -10 -97
-55 -172 -99 -76 -43 -140 -78 -144 -78 -4 1 -10 -2 -13 -7 -8 -12 -269 -163
-282 -163 -5 0 -9 -4 -9 -10 0 -5 -6 -10 -14 -10 -7 0 -19 -7 -26 -15 -7 -8
-16 -13 -20 -10 -5 3 -11 1 -14 -4 -3 -5 -52 -35 -108 -67 -57 -32 -115 -65
-129 -74 -15 -8 -107 -61 -205 -118 -99 -57 -186 -107 -194 -112 -20 -13 -236
-138 -345 -200 -40 -23 -74 -42 -165 -95 -36 -21 -78 -45 -95 -53 -16 -9 -32
-18 -35 -22 -3 -4 -18 -13 -35 -22 -56 -28 -216 -121 -220 -129 -3 -4 -5
-1084 -5 -2400 l0 -2394 172 -101 c157 -92 758 -440 868 -502 25 -14 78 -45
118 -69 41 -24 76 -43 78 -43 2 0 21 -11 42 -23 20 -13 114 -68 207 -122 194
-112 453 -262 475 -275 70 -42 266 -155 270 -155 3 0 16 -8 30 -17 55 -35 152
-88 161 -88 5 0 9 -4 9 -10 0 -5 5 -10 10 -10 6 0 27 -11 48 -23 20 -13 58
-36 85 -50 26 -15 68 -39 95 -54 26 -14 63 -37 82 -50 19 -12 39 -23 43 -23 5
0 29 -13 54 -30 24 -16 46 -30 48 -30 2 0 28 -14 57 -31 29 -18 67 -39 83 -49
17 -9 134 -77 260 -150 127 -73 250 -144 275 -158 25 -14 62 -36 82 -49 21
-12 39 -23 42 -23 2 0 43 -24 92 -53 49 -29 96 -56 104 -60 8 -4 33 -18 55
-32 22 -14 47 -28 55 -32 8 -4 43 -24 78 -45 34 -21 68 -38 75 -38 7 0 54 25
105 55 51 30 97 55 102 55 6 0 10 5 10 10 0 6 5 10 11 10 6 0 49 23 97 51 48
29 103 61 122 72 19 10 150 86 291 168 141 81 278 160 305 175 27 15 61 35 76
45 14 11 29 19 32 19 4 0 23 11 44 23 20 13 57 35 82 49 25 14 73 42 107 62
34 20 66 36 72 36 6 0 11 3 11 8 0 4 10 12 23 18 12 6 62 34 111 62 49 29 93
52 97 52 5 0 9 4 9 8 0 4 15 15 33 23 17 9 61 33 97 54 124 73 145 85 160 92
8 3 33 18 55 31 22 14 65 39 95 55 30 17 57 33 60 36 3 4 23 15 45 26 22 11
47 25 55 31 8 7 38 24 65 39 28 14 64 35 80 45 17 10 42 26 58 34 81 43 263
151 268 159 3 5 10 9 15 9 5 0 38 17 74 38 36 21 69 38 74 38 5 0 12 4 15 9 3
5 58 38 121 74 63 37 135 79 160 93 25 15 53 29 63 33 9 3 17 9 17 14 0 5 4 9
9 9 4 0 61 30 125 68 65 37 138 78 164 92 26 13 49 27 52 31 3 3 32 20 65 38
33 18 65 36 70 41 6 4 30 18 55 32 25 14 71 40 103 59 32 19 70 41 85 49 15 8
46 26 69 39 l40 23 1 2387 c0 1312 -2 2393 -4 2402 -2 9 -22 25 -44 35 -22 10
-40 22 -40 27 0 4 -4 7 -9 7 -5 0 -117 63 -250 140 -133 77 -246 140 -251 140
-6 0 -10 5 -10 10 0 6 -6 10 -12 11 -7 0 -33 14 -58 30 -25 15 -65 39 -90 52
-71 38 -254 145 -267 157 -7 5 -16 10 -21 10 -5 0 -21 9 -35 20 -15 12 -28 20
-29 19 -2 -2 -14 4 -28 13 -36 23 -265 154 -335 192 -11 6 -27 16 -35 22 -8 6
-35 22 -60 36 -25 13 -64 36 -87 51 -24 15 -45 27 -48 27 -4 0 -126 69 -175
99 -14 9 -393 227 -484 280 -22 13 -109 63 -193 112 -84 49 -157 89 -162 89
-5 0 -11 3 -13 8 -1 4 -19 16 -38 26 -19 10 -60 33 -90 51 -107 63 -376 218
-410 237 -19 11 -50 28 -69 39 -57 34 -544 315 -581 337 -45 25 -156 89 -195
113 l-30 18 -100 -58z m198 -414 c51 -30 99 -57 107 -61 22 -10 56 -30 71 -42
8 -6 39 -25 69 -41 30 -17 95 -53 143 -82 49 -28 93 -51 98 -51 5 0 9 -4 9
-10 0 -5 4 -10 9 -10 5 0 64 -32 132 -71 68 -40 144 -83 169 -97 25 -14 89
-52 143 -84 55 -32 101 -58 103 -58 2 0 27 -15 56 -33 29 -18 67 -39 83 -47
17 -8 32 -17 35 -20 10 -10 65 -41 83 -47 9 -3 17 -8 17 -12 0 -4 16 -13 35
-21 19 -8 35 -17 35 -22 0 -4 5 -8 10 -8 6 0 80 -40 165 -90 85 -49 159 -90
165 -90 5 0 10 -4 10 -8 0 -4 24 -20 53 -35 28 -16 70 -39 92 -53 22 -13 47
-27 55 -31 8 -4 33 -18 55 -31 77 -48 208 -122 216 -122 5 0 9 -5 9 -11 0 -5
4 -8 9 -5 5 3 14 -1 21 -9 7 -8 19 -15 26 -15 8 0 14 -3 14 -7 0 -5 10 -13 23
-18 46 -22 112 -60 115 -67 2 -5 9 -8 17 -8 7 0 18 -7 25 -15 7 -9 15 -13 18
-10 3 3 10 1 16 -4 13 -10 344 -205 396 -233 19 -10 58 -32 85 -48 28 -16 70
-41 95 -55 25 -14 59 -34 76 -44 17 -10 107 -63 200 -116 93 -54 184 -106 202
-116 17 -11 49 -28 70 -40 60 -34 60 -34 60 -124 0 -46 3 -88 7 -94 3 -6 3
-11 -2 -11 -9 0 -7 -1575 2 -1590 3 -6 3 -10 -2 -10 -9 0 -7 -615 2 -630 3 -6
3 -10 -2 -10 -9 0 -7 -935 2 -950 3 -6 3 -10 -2 -10 -9 0 -8 -894 2 -910 3 -5
2 -10 -3 -10 -6 0 -8 -15 -5 -33 4 -33 2 -36 -64 -74 -37 -23 -86 -51 -108
-63 -22 -12 -80 -46 -130 -75 -49 -29 -106 -62 -126 -73 -59 -33 -82 -47 -93
-55 -6 -4 -25 -16 -42 -25 -39 -22 -258 -146 -304 -174 -19 -11 -118 -68 -220
-126 -102 -59 -188 -111 -192 -117 -4 -5 -8 -7 -8 -2 0 6 -46 -19 -60 -33 -3
-3 -21 -13 -40 -24 -33 -17 -365 -208 -468 -269 -26 -15 -54 -31 -62 -34 -8
-4 -17 -9 -20 -12 -3 -4 -16 -12 -30 -19 -14 -6 -50 -26 -81 -44 -31 -18 -118
-69 -195 -113 -76 -44 -140 -83 -142 -87 -2 -5 -8 -8 -13 -8 -5 0 -64 -32
-132 -71 -67 -40 -138 -81 -157 -92 -19 -10 -152 -87 -295 -170 -143 -83 -271
-157 -285 -164 -14 -8 -38 -22 -55 -32 -16 -10 -46 -27 -65 -38 -19 -11 -118
-68 -219 -127 -174 -101 -185 -105 -210 -93 -14 8 -66 37 -115 65 -49 29 -91
52 -93 52 -2 0 -25 14 -51 32 -26 18 -49 32 -52 32 -3 -1 -14 4 -25 11 -23 14
-131 77 -190 110 -22 13 -107 62 -190 110 -82 48 -170 99 -195 113 -25 14 -62
36 -82 49 -21 12 -39 23 -41 23 -5 0 -379 217 -392 227 -5 4 -23 15 -40 23
-16 8 -48 26 -70 39 -22 14 -58 35 -80 46 -22 12 -105 59 -185 106 -80 47
-152 88 -160 92 -8 4 -22 11 -30 17 -44 29 -292 170 -300 170 -6 0 -10 3 -10
8 0 4 -15 14 -32 22 -18 7 -37 18 -43 23 -5 4 -91 54 -190 111 -99 57 -358
206 -575 331 -217 125 -408 236 -425 245 -16 9 -65 38 -108 64 -43 25 -83 46
-88 46 -5 0 -9 10 -10 23 0 12 -1 998 -1 2190 -1 1861 1 2170 13 2182 12 12
113 72 284 169 22 13 63 37 91 53 27 17 70 42 95 55 84 47 94 53 99 58 3 3 19
12 35 21 72 37 120 64 125 70 3 3 12 9 20 12 8 4 29 16 46 26 17 10 105 61
195 113 90 52 204 118 253 146 49 29 92 52 97 52 4 0 14 6 21 13 7 7 69 44
138 84 116 66 235 135 660 381 91 52 183 105 205 117 46 25 332 190 355 205 8
5 71 41 140 81 69 39 133 78 143 87 9 8 17 12 17 8 0 -4 13 2 29 13 16 12 37
24 47 29 11 4 44 23 74 42 30 19 57 35 60 35 10 1 105 60 108 67 2 4 8 8 14 8
5 0 40 17 76 39 37 21 83 48 102 59 117 66 216 125 225 133 17 16 36 10 128
-44z"/>
<path d="M6220 7591 c0 -5 -21 -45 -47 -90 -27 -45 -55 -93 -63 -109 -14 -23
-40 -68 -87 -147 -7 -11 -15 -27 -19 -35 -4 -8 -27 -48 -51 -88 -24 -41 -43
-76 -43 -80 0 -3 -6 -13 -14 -21 -8 -9 -26 -38 -41 -66 -14 -27 -36 -66 -47
-85 -37 -64 -211 -363 -266 -460 -30 -52 -62 -108 -70 -125 -9 -16 -18 -32
-21 -35 -9 -7 -30 -42 -40 -65 -5 -11 -42 -76 -82 -145 -41 -69 -80 -136 -87
-150 -25 -48 -49 -89 -68 -117 -10 -15 -19 -30 -19 -33 0 -3 -17 -33 -38 -66
-20 -34 -37 -67 -37 -73 0 -6 -4 -11 -8 -11 -4 0 -18 -19 -30 -42 -12 -24 -30
-56 -40 -73 -9 -16 -50 -87 -90 -158 -66 -115 -92 -143 -92 -101 0 8 -5 14
-11 14 -5 0 -7 5 -4 10 3 6 3 10 -2 10 -4 0 -13 10 -19 23 -10 20 -124 218
-180 312 -13 22 -38 65 -54 95 -17 30 -35 62 -40 70 -13 20 -94 161 -104 180
-4 8 -17 31 -29 51 -71 118 -187 322 -187 330 0 5 -4 9 -10 9 -5 0 -10 4 -10
10 0 5 -14 33 -31 62 -18 29 -41 69 -52 88 -11 19 -86 150 -167 290 -81 140
-157 271 -167 290 -11 19 -53 91 -93 160 -40 68 -81 139 -91 157 -11 18 -28
49 -39 68 -11 19 -29 50 -39 69 -36 63 -46 76 -58 76 -10 0 -56 -25 -143 -79
-14 -9 -28 -14 -32 -13 -5 1 -8 -2 -8 -8 0 -5 -4 -10 -9 -10 -5 0 -32 -14 -60
-31 l-51 -32 19 -31 c51 -83 81 -138 81 -146 0 -6 4 -10 9 -10 5 0 11 -8 15
-17 3 -10 14 -31 23 -48 10 -16 34 -57 53 -90 19 -33 40 -69 47 -80 7 -11 15
-26 19 -34 11 -22 313 -545 324 -561 6 -8 17 -28 26 -45 8 -16 27 -50 42 -75
15 -25 54 -93 87 -150 32 -58 62 -107 65 -110 6 -6 49 -84 65 -117 5 -13 13
-23 18 -23 4 0 7 -4 7 -9 0 -9 53 -106 88 -161 9 -14 15 -28 14 -32 -1 -5 2
-8 8 -8 5 0 10 -4 10 -9 0 -5 27 -55 60 -111 33 -56 60 -103 60 -105 0 -2 14
-24 30 -48 17 -25 30 -48 30 -51 0 -4 11 -23 23 -44 13 -20 35 -57 49 -82 14
-25 34 -61 45 -80 11 -19 29 -51 39 -70 11 -19 23 -38 29 -42 5 -4 6 -10 2
-14 -4 -4 -627 -8 -1385 -8 -757 -1 -1382 -4 -1387 -8 -11 -7 -14 -333 -3
-343 3 -4 229 -6 502 -6 l496 0 35 -60 c19 -33 35 -64 35 -70 0 -5 4 -9 8 -9
4 0 18 -19 30 -42 12 -24 37 -70 57 -103 19 -33 46 -80 60 -105 25 -44 36 -63
110 -190 20 -36 49 -85 63 -110 14 -25 36 -62 49 -82 12 -21 23 -42 23 -48 0
-5 4 -10 8 -10 5 0 14 -16 22 -35 8 -19 16 -35 19 -35 4 0 13 -15 20 -32 8
-18 22 -44 32 -58 17 -25 264 -452 302 -521 l19 -36 -26 -44 c-14 -24 -31 -55
-38 -69 -7 -14 -15 -27 -18 -30 -3 -3 -14 -22 -25 -42 -11 -20 -44 -79 -74
-130 -30 -51 -62 -106 -71 -123 -10 -16 -46 -80 -82 -141 -36 -61 -68 -117
-72 -125 -4 -8 -18 -32 -31 -54 -13 -22 -33 -56 -43 -76 l-19 -37 54 -31 c30
-17 59 -31 64 -31 5 0 9 -4 9 -10 0 -5 4 -10 10 -10 5 0 43 -20 83 -45 41 -25
78 -45 83 -45 5 0 32 40 59 90 28 49 53 90 58 90 4 0 7 9 7 20 0 11 3 20 8 20
4 0 16 18 26 40 11 22 23 40 28 40 4 0 7 3 6 8 -2 6 48 97 136 245 15 27 205
355 367 637 24 41 47 77 51 78 4 2 8 9 8 16 0 6 29 61 65 121 36 60 65 110 65
111 0 1 48 84 106 185 58 101 113 198 122 214 10 17 19 32 22 35 8 8 25 38 61
105 18 33 49 89 70 124 22 34 39 67 39 72 0 5 5 9 10 9 6 0 10 4 10 9 0 15 70
131 78 131 4 0 15 -15 24 -33 40 -81 61 -117 69 -117 5 0 9 -6 9 -14 0 -8 17
-43 38 -78 33 -53 177 -302 263 -453 39 -69 84 -146 94 -163 6 -9 21 -35 33
-57 13 -22 36 -62 53 -90 16 -27 34 -61 40 -75 6 -13 14 -27 18 -30 4 -3 44
-70 90 -150 45 -80 87 -152 92 -160 5 -8 41 -71 80 -139 39 -68 82 -142 95
-165 14 -22 27 -49 31 -58 3 -10 9 -18 14 -18 5 0 9 -5 9 -10 0 -6 17 -38 38
-73 20 -34 44 -76 52 -92 8 -17 27 -49 42 -72 15 -23 28 -44 28 -46 0 -4 169
-297 177 -306 2 -3 22 6 46 19 23 13 51 28 62 34 11 6 22 13 25 16 3 3 25 16
50 29 25 14 64 36 86 50 l42 26 -159 275 c-88 151 -164 284 -169 295 -5 11
-21 38 -35 60 -13 22 -35 60 -49 85 -13 25 -40 71 -59 103 -35 57 -35 59 -19
88 9 16 20 29 25 29 4 0 7 4 7 10 0 5 73 137 163 292 90 156 174 303 188 328
13 25 26 47 29 50 6 5 85 142 128 220 14 25 28 50 32 55 4 6 18 28 30 50 92
166 266 461 274 467 6 4 233 7 504 7 271 -1 496 2 499 5 4 4 7 245 4 337 -1
14 -138 15 -1391 15 -1385 -1 -1390 -1 -1384 19 4 11 10 22 13 25 7 5 86 141
134 230 16 30 36 62 43 70 7 8 14 22 16 30 2 8 5 17 8 20 7 7 69 112 170 290
46 80 98 169 116 198 19 28 31 52 28 52 -4 0 -1 7 6 15 13 16 20 27 89 151 25
43 48 81 51 84 4 3 9 10 11 16 3 9 190 335 220 384 5 8 32 56 60 105 55 96 58
101 143 245 31 52 61 107 67 123 6 15 15 27 20 27 5 0 9 5 9 10 0 6 39 77 86
158 47 81 86 151 87 155 2 7 -88 63 -223 139 -19 11 -39 23 -45 28 -18 13 -45
20 -45 11z m-1702 -2950 c-6 -12 -58 -106 -67 -121 -34 -55 -101 -171 -101
-175 0 -8 -64 -110 -73 -116 -5 -3 -8 -9 -7 -13 2 -10 -423 -745 -431 -746 -4
0 -14 15 -23 33 -9 17 -26 48 -38 67 -12 19 -31 52 -42 72 -12 20 -45 77 -73
127 -29 50 -53 95 -53 101 0 5 -4 10 -10 10 -5 0 -10 4 -10 9 0 5 -17 38 -38
72 -21 35 -52 89 -69 119 -17 30 -54 96 -83 145 -29 50 -60 104 -70 120 -9 17
-48 84 -87 150 -38 66 -72 127 -75 136 -6 15 49 17 673 16 374 0 678 -3 677
-6z m1982 -2 c0 -4 -53 -99 -118 -211 -65 -112 -165 -284 -222 -383 -56 -99
-120 -208 -141 -243 -22 -35 -39 -65 -39 -67 0 -3 -13 -26 -29 -52 -15 -27
-50 -85 -76 -131 -26 -45 -49 -81 -51 -80 -10 12 -134 231 -134 239 0 5 -4 9
-10 9 -5 0 -10 5 -10 11 0 9 -47 92 -129 229 -11 19 -24 42 -28 50 -3 8 -14
26 -23 40 -9 14 -30 50 -47 80 -17 30 -53 95 -82 144 -28 49 -51 93 -51 97 0
5 -4 9 -10 9 -5 0 -10 4 -10 9 0 5 -23 49 -51 98 -74 127 -89 153 -89 157 0 2
304 3 675 3 371 0 675 -4 675 -8z"/>
</g>
</svg>
