<svg width="64" height="64" viewBox="0 0 64 64" fill="none" xmlns="http://www.w3.org/2000/svg">
<rect width="64" height="64" fill="white"/>
<path d="M7.11111 17.0854V46.9869L32.0478 61.939L56.9845 46.9869V17.0854L32.0478 2.13334L7.11111 17.0854ZM54.833 45.6977L32.0478 59.3605L9.26261 45.6977V18.3721L32.0478 4.70929L54.833 18.3721V45.6977Z" fill="#2A2C38"/>
<path d="M23.7492 14.7189L21.8882 15.836L30.2565 30.8853H13.52V33.1172H19.5518L24.9042 42.7427L21.8882 48.1664L23.7492 49.2836L32.1174 34.2343L40.4857 49.2836L42.3466 48.1664L39.3139 42.7103L44.647 33.1172H50.7149V30.8853H33.9808L42.349 15.836L40.4881 14.7189L32.1198 29.7682L23.7492 14.7189ZM22.0347 33.1197H30.2541L26.1432 40.5134L22.0347 33.1197ZM38.0701 40.481L33.9784 33.1197H42.1641L38.0701 40.481Z" fill="#2A2C38"/>
</svg>
